PathFileType  4	(X/Y/Z) C:\Users\antoi\Documents\MyRepositories\mobilecap\ResultsAnalysis
DataRate	CameraRate	NumFrames	NumMarkers	Units	OrigDataRate	OrigDataStartFrame	OrigNumFrames
100.0	100.0	4	55	mm	100.0	401	800
Frame#	Time	r_knee			r_shank_antsup			r_ankle			r_calc			r_5meta			r_toe			L_knee			L_shank_antsup			L_ankle			L_calc			L_5meta			L_toe			r_mknee			r_mankle			L_mknee			L_mankle			r_sh2			r_sh3			r_sh4			L_sh2			L_sh3			r_thigh1			r_thigh2			r_thigh3			r_thigh4			r_thigh5			L_thigh1			L_thigh2			L_thigh3			L_thigh4			r.ASIS			r.PSIS			L.ASIS			L.PSIS			C7			R_Shoulder			L_Shoulder			R_Sternum			L_Sternum			R_humerus			R_elbow_med			R_elbow_lat			R_forearm			R_wrist_radius			R_wrist_ulna			L_humerus			L_elbow_med			L_elbow_lat			L_forearm			L_wrist_radius			L_wrist_ulna			R_HJC			L_HJC			R_HJC_reg			L_HJC_reg			
		X1	Y1	Z1	X2	Y2	Z2	X3	Y3	Z3	X4	Y4	Z4	X5	Y5	Z5	X6	Y6	Z6	X7	Y7	Z7	X8	Y8	Z8	X9	Y9	Z9	X10	Y10	Z10	X11	Y11	Z11	X12	Y12	Z12	X13	Y13	Z13	X14	Y14	Z14	X15	Y15	Z15	X16	Y16	Z16	X17	Y17	Z17	X18	Y18	Z18	X19	Y19	Z19	X20	Y20	Z20	X21	Y21	Z21	X22	Y22	Z22	X23	Y23	Z23	X24	Y24	Z24	X25	Y25	Z25	X26	Y26	Z26	X27	Y27	Z27	X28	Y28	Z28	X29	Y29	Z29	X30	Y30	Z30	X31	Y31	Z31	X32	Y32	Z32	X33	Y33	Z33	X34	Y34	Z34	X35	Y35	Z35	X36	Y36	Z36	X37	Y37	Z37	X38	Y38	Z38	X39	Y39	Z39	X40	Y40	Z40	X41	Y41	Z41	X42	Y42	Z42	X43	Y43	Z43	X44	Y44	Z44	X45	Y45	Z45	X46	Y46	Z46	X47	Y47	Z47	X48	Y48	Z48	X49	Y49	Z49	X50	Y50	Z50	X51	Y51	Z51	X52	Y52	Z52	X53	Y53	Z53	X54	Y54	Z54	X55	Y55	Z55	

401	4.00000000	-218.56044	606.57182	-670.60783	-208.73142	464.66355	-661.51466	-286.85885	103.35089	-629.08483	-347.02702	72.17020	-689.28747	-151.56195	40.32783	-599.12780	-113.67717	64.90094	-652.93716	-241.62259	608.21619	-1113.12318	-206.95103	415.68824	-1121.91024	-294.88904	116.00107	-1160.29259	-350.05356	74.51701	-1102.38618	-150.75690	31.94554	-1194.64228	-112.47739	65.65733	-1136.45041	-239.86967	587.21728	-788.15207	-254.04649	128.43134	-727.56894	-233.65668	579.64172	-992.88729	-252.13340	125.49316	-1068.63962	-218.88704	352.08391	-654.36404	-271.17449	472.42397	-620.51576	-284.69051	362.16102	-605.03618	-278.13447	435.06870	-1169.47906	-293.60597	315.80593	-1169.12858	-136.77492	895.31716	-676.91329	-141.34876	785.37428	-670.48056	-204.53372	763.80031	-656.08495	-248.88236	901.39208	-692.78005	-254.11108	783.04694	-674.54970	-144.01309	893.94130	-1090.44467	-160.53754	761.59369	-1102.40490	-249.68013	913.91825	-1095.62216	-266.94342	776.02080	-1111.99781	-72.85588	1170.74087	-760.78031	-265.09656	1205.09724	-827.33664	-109.88894	1163.38692	-1033.51191	-277.06466	1208.03376	-918.82525	-272.14618	1679.27603	-889.37815	-189.11540	1658.30599	-717.62148	-227.11025	1666.07665	-1065.69145	-111.63758	1629.69744	-872.00839	-115.70231	1631.62331	-923.22822	-190.77060	1391.04541	-635.88948	-270.23052	1279.29731	-670.58305	-265.14038	1301.33807	-603.03771	-187.53564	1108.15693	-551.79363	-159.62002	1015.79467	-540.74160	-193.86913	1017.07474	-522.59146	-203.99608	1373.84966	-1134.27452	-280.70136	1294.24460	-1083.31011	-268.64780	1293.77327	-1156.99962	-189.27248	1108.11050	-1203.94618	-159.60239	1033.19822	-1206.25294	-188.77417	1033.03866	-1225.76360	-156.95979	1077.14664	-787.32654	-188.51177	1076.92382	-982.26597	-147.96224	1081.11805	-793.45570	-171.52117	1086.89854	-973.54887	
402	4.01000000	-218.57128	606.56756	-670.61142	-208.75924	464.71943	-661.48167	-286.86269	103.34884	-629.07991	-347.02394	72.17708	-689.27494	-151.56656	40.32897	-599.12607	-113.70843	64.91826	-652.91570	-241.62097	608.23873	-1113.12459	-206.94170	415.71887	-1121.89208	-294.89929	116.02660	-1160.29592	-350.06128	74.49857	-1102.36920	-150.75303	31.95756	-1194.61648	-112.47913	65.65988	-1136.44559	-239.87259	587.23023	-788.15176	-254.05544	128.46869	-727.55897	-233.65797	579.63315	-992.89016	-252.12132	125.49632	-1068.67103	-219.00663	352.28346	-654.31248	-271.17685	472.43273	-620.51329	-284.68694	362.16127	-605.02733	-278.13744	435.10350	-1169.48362	-293.60460	315.80787	-1169.12855	-136.90438	895.20038	-677.03594	-141.43505	785.40254	-670.43516	-204.58274	763.75996	-656.10026	-248.96260	901.35844	-692.79407	-254.13403	783.03771	-674.53853	-143.99826	893.96045	-1090.42334	-160.53369	761.62297	-1102.38567	-249.67385	913.94423	-1095.58609	-266.93844	776.03334	-1111.99260	-72.86246	1170.76274	-760.76660	-265.11821	1205.09808	-827.32637	-109.89077	1163.38473	-1033.51328	-277.07768	1208.02188	-918.81754	-272.18459	1679.27621	-889.34835	-189.13543	1658.31522	-717.60818	-227.16071	1666.07890	-1065.62425	-111.66670	1629.70493	-871.99122	-115.74217	1631.62098	-923.19650	-190.78472	1391.05412	-635.86327	-270.20334	1279.40438	-670.56611	-265.15608	1301.39156	-603.02355	-187.56444	1108.16330	-551.73972	-159.65843	1015.78342	-540.72299	-193.91768	1017.09743	-522.54546	-204.04678	1373.87007	-1134.25841	-280.74004	1294.21898	-1083.19408	-268.73233	1293.78293	-1156.88594	-189.32841	1108.11852	-1203.85933	-159.64210	1033.17780	-1206.11443	-188.84165	1033.05552	-1225.65876	-156.95942	1077.15846	-787.31088	-188.51023	1076.91817	-982.25048	-147.97214	1081.13252	-793.43886	-171.51509	1086.88818	-973.54487	
403	4.02000000	-218.57893	606.56278	-670.60795	-208.79528	464.79177	-661.43997	-286.86358	103.34746	-629.07508	-347.02849	72.18636	-689.26412	-151.56905	40.32622	-599.11974	-113.71298	64.92022	-652.91142	-241.61549	608.26276	-1113.12230	-206.93833	415.73481	-1121.86484	-294.89606	116.05734	-1160.27995	-350.06333	74.47689	-1102.31398	-150.74706	31.97692	-1194.60272	-112.48551	65.70358	-1136.46885	-239.87921	587.23739	-788.15562	-254.05069	128.53588	-727.54376	-233.66865	579.62416	-992.89120	-252.11072	125.49351	-1068.71715	-219.05811	352.34375	-654.29716	-271.18232	472.43512	-620.50662	-284.70098	362.15086	-605.03714	-278.13905	435.13427	-1169.51210	-293.60253	315.80972	-1169.13643	-136.95523	895.18168	-677.07655	-141.46042	785.42626	-670.43618	-204.65629	763.75651	-656.13518	-249.03541	901.38901	-692.81480	-254.15917	783.01133	-674.54437	-143.98984	893.97583	-1090.40404	-160.52738	761.63693	-1102.37058	-249.66039	913.96675	-1095.55547	-266.92692	776.03041	-1111.99799	-72.86267	1170.76095	-760.75668	-265.13362	1205.10356	-827.33033	-109.86935	1163.39454	-1033.50270	-277.09615	1208.02045	-918.82469	-272.21289	1679.28059	-889.28706	-189.15548	1658.31992	-717.58884	-227.20307	1666.08418	-1065.56399	-111.71678	1629.71161	-871.94016	-115.75283	1631.61720	-923.19935	-190.79379	1391.05386	-635.85380	-270.20472	1279.47583	-670.54555	-265.18111	1301.46582	-602.98626	-187.61478	1108.16981	-551.67997	-159.69755	1015.74981	-540.73826	-193.95616	1017.10261	-522.50504	-204.10903	1373.83372	-1134.18391	-280.79548	1294.20026	-1083.11039	-268.79588	1293.78517	-1156.82325	-189.35342	1108.12171	-1203.79169	-159.68030	1033.17677	-1205.99397	-188.89768	1033.04843	-1225.53207	-156.96710	1077.15937	-787.30978	-188.50108	1076.92389	-982.25211	-147.96850	1081.15031	-793.42020	-171.51629	1086.89210	-973.52344	
404	4.03000000	-218.58026	606.56945	-670.59424	-208.80382	464.82036	-661.39625	-286.85963	103.35024	-629.07552	-347.03063	72.19372	-689.25628	-151.56670	40.32145	-599.11815	-113.70857	64.91961	-652.91106	-241.61080	608.27719	-1113.11979	-206.94266	415.73167	-1121.84938	-294.88769	116.06684	-1160.26638	-350.05495	74.46906	-1102.27782	-150.73997	31.98279	-1194.60517	-112.32165	65.46902	-1136.30457	-239.88995	587.24629	-788.16247	-254.02483	128.58591	-727.53177	-233.68063	579.63078	-992.88811	-252.12327	125.48364	-1068.73230	-219.03588	352.27620	-654.28956	-271.19279	472.42816	-620.50229	-284.75040	362.12876	-605.08967	-278.14023	435.13386	-1169.52764	-293.60752	315.80848	-1169.13979	-136.98292	895.24355	-677.06068	-141.47853	785.45088	-670.45796	-204.75116	763.77844	-656.11931	-249.04693	901.40224	-692.81814	-254.20583	783.00327	-674.56264	-143.99844	893.98321	-1090.39228	-160.51914	761.63811	-1102.36540	-249.64296	913.97477	-1095.54724	-266.92153	776.02840	-1112.00222	-72.86528	1170.76311	-760.74292	-265.15146	1205.10799	-827.33880	-109.85865	1163.41934	-1033.48280	-277.10971	1208.02714	-918.83606	-272.21390	1679.28400	-889.24522	-189.15787	1658.31236	-717.55883	-227.23125	1666.09588	-1065.55021	-111.76252	1629.71640	-871.88186	-115.76965	1631.62979	-923.22824	-190.80089	1391.04867	-635.85063	-270.21628	1279.46669	-670.53760	-265.18997	1301.48890	-602.92633	-187.64169	1108.18346	-551.66151	-159.70809	1015.73120	-540.75624	-193.97891	1017.07731	-522.48795	-204.18642	1373.73573	-1134.02627	-280.85847	1294.18495	-1083.06656	-268.84689	1293.77003	-1156.83748	-189.36205	1108.12515	-1203.74386	-159.72397	1033.19436	-1205.90086	-188.93093	1033.00853	-1225.39412	-156.97742	1077.16321	-787.31158	-188.49161	1076.93989	-982.25712	-147.97168	1081.16348	-793.41075	-171.50971	1086.90939	-973.50949	
